<?xml version="1.0" encoding="UTF-8"?>
<svg xmlns="http://www.w3.org/2000/svg" viewBox="0 0 1024 1024" width="1024" height="1024">
  <defs>
    <style>
      .navy { fill: #171c61; }
      .orange { fill: #ea5514; }
    </style>
  </defs>

  <!-- 背景 -->
  <rect width="1024" height="1024" fill="#f7f5f1"/>

  <!-- 顶部装饰条 -->
  <rect x="0" y="0" width="1024" height="10" fill="#171c61"/>
  <rect x="0" y="0" width="340" height="10" fill="#ea5514"/>

  <!-- 上部装饰：橙色细线 -->
  <line x1="412" y1="240" x2="612" y2="240" stroke="#ea5514" stroke-width="3"/>

  <!-- 小副品牌 -->
  <text x="512" y="290" text-anchor="middle"
        font-family="'PingFang SC','Microsoft YaHei',-apple-system,sans-serif"
        font-size="24" font-weight="500" fill="#171c61" letter-spacing="6" opacity="0.7">
    YITU CAR RENTAL · NEW ZEALAND
  </text>

  <!-- Logo：原 viewBox 447.15×120.79 → 700×189，居中 (x=162, y=380) -->
  <svg x="162" y="380" width="700" height="189" viewBox="0 0 447.15 120.79">
    <path class="navy" d="M32.05,65.37c.07,7.08.06,18.17.05,25.25h18.17c-.04-7.11-.04-18.24.01-25.34,0-.7.38-1.52.9-2.08,7.62-8.26,23.87-27.76,25.82-30.76-5.08,0-14.34.02-19.42.04-.74,0-1.68.47-2.19.93-6.06,5.42-13.71,17.02-14.23,17.48-1.95-1.74-14.85-13.38-19.41-17.57-.71-.65-1.48-.95-2.61-.9-2.93.13-20.69.07-21.69.12.8.79,23.04,20.98,33.53,30.56.65.59,1.07,1.51,1.08,2.27h0Z"/>
    <path class="orange" d="M163.19,45.78v-13.37c-10.87,0-41.99,0-51.76,0l-2.57,13.37c2.88,0,19.44-.03,19.53-.02.02.07.34,44.85.34,44.85,0,0,13.09-11.03,15.91-13.34,1.11-.91,1.57-1.77,1.57-2.89-.02-4.56-.04-28.56-.03-28.62.07,0,14.18.02,17.01.02Z"/>
    <path class="navy" d="M207.66,74.6c-1.18,3.4-4.42,5.39-9.12,5.58-3.03.12-6.49-.01-9.15-1.99-2.36-1.76-2.97-4.11-3.24-6.2.02-.03.04-.05.04-.06,6.89-3.53,14.36-6.44,22.21-8.66-.02,1.02.01,2.02.04,3.01.08,2.89.15,5.62-.78,8.32h0ZM214.69,55.54c-14.73,1.18-27.31,4.3-38.54,8.64-20.9,8.08-37.78,26.44-37.78,26.44h21.61c.56-.51,11.63-9.97,12.15-10.39,2.95,5.25,7.91,8.74,14.76,10.4,3.21.78,6.6,1.17,10.11,1.17,2.44,0,4.95-.19,7.51-.56,6-.88,10.81-3.08,14.3-6.54,3.37-3.34,5.26-7.37,5.61-11.95.25-3.22.37-13,.38-13.05.04,0,.09-.02.17-.03,12.7-1.95,25.95-2.34,39.4-1.15,2.29.2,4.62.46,6.88.72,1.05.12,2.11.24,3.16.35,0,0-23.43-6.93-59.71-4.03h0Z"/>
    <path class="navy" d="M169.57,32.42v31.7s4.82-1.69,4.82-1.69c3.41-1.19,6.64-2.32,9.87-3.5.86-.31,1.56-1.18,1.56-1.93.05-7.19.07-17.83.08-24.12v-.46s-16.34,0-16.34,0h0Z"/>
    <path class="orange" d="M208.44,32.42c.01,2.39,0,21.32,0,21.32,0,0,10.86-1.27,14.45-1.63,1.1-.11,1.84-1.14,1.84-1.77.02-4.05.03-17.07.03-17.92,0,0-16.32,0-16.32,0Z"/>
    <path class="navy" d="M81.53,68.27v22.34h20.02v-32.42c-8.19,3.05-15.85,6.33-20.02,10.07Z"/>
    <path class="orange" d="M101.54,32.41h-20.08l-.3,31.41c4.17-3.74,11.47-7.31,19.65-10.35l.73-21.06h0Z"/>
    <path class="navy" d="M236.03,64.49c-2.07.69-3.72,1.78-4.96,3.27-1.7,2.06-2.54,4.73-2.54,8.02,0,2.75.55,5.05,1.66,6.92,1.69,2.77,4.55,4.45,8.56,5.04,1.14.17,2.79.26,4.94.26h11.39v-4.38h-9.97c-2.77,0-4.81-.39-6.11-1.18-1.86-1.13-2.79-3.51-2.79-7.14,0-2.7.6-4.56,1.81-5.59,1.43-1.25,3.7-1.88,6.8-1.88h10.27v-4.38h-11.05c-3.26,0-5.92.34-7.99,1.03h0Z"/>
    <path class="navy" d="M274.24,84.17h-7.53c-1.3,0-2.23-.12-2.76-.37-.54-.24-.81-.65-.81-1.21,0-.51.22-.92.66-1.21.44-.29,1.03-.44,1.79-.44h8.65v3.24ZM275.65,70.53c-.78-.17-1.55-.29-2.3-.35-.75-.06-2.12-.09-4.11-.09h-11.05v3.83h11.05c1.99,0,3.32.22,3.99.66.67.44,1,1.29,1,2.54h-8.02c-2.58,0-4.42.15-5.53.44-1.27.34-2.29.99-3.05,1.93-.77.94-1.15,2.02-1.15,3.22,0,1.99.96,3.47,2.89,4.45.72.34,1.55.57,2.49.68.95.11,2.66.17,5.13.17h13.79v-10.08c.2-3.9-1.52-6.36-5.13-7.39h0Z"/>
    <path class="navy" d="M299.76,71.45c-.72-.49-1.62-.84-2.71-1.05-1.09-.21-2.62-.31-4.61-.31h-9.66v17.92h6.55v-14.09h1.86c1.66,0,2.79.23,3.37.7.59.47.88,1.34.88,2.61v.96h6.26v-1.73c0-1.37-.15-2.43-.44-3.16-.29-.74-.8-1.35-1.51-1.84h0Z"/>
    <path class="navy" d="M334.8,73.76c-.69.37-1.84.55-3.47.55h-9.73v-6.47h9.73c1.24,0,2.13.07,2.69.22,1.57.42,2.35,1.37,2.35,2.87,0,1.35-.52,2.29-1.56,2.83h0ZM343.28,81.89c-.18-.54-.46-1.1-.86-1.69-.52-.74-1.11-1.29-1.76-1.67-.65-.38-1.61-.74-2.88-1.08,1.6-.39,2.88-.97,3.86-1.73,1.56-1.28,2.35-3.08,2.35-5.41,0-1.15-.33-2.21-1-3.18-.67-.97-1.62-1.75-2.86-2.34-1.79-.88-4.97-1.32-9.53-1.32h-15.94v24.54h6.94v-9.31h5.57c2.41-.02,4.25.22,5.53.74,1.01.44,1.77,1.04,2.27,1.8.5.76.84,1.85,1,3.27.26,1.77.5,2.93.73,3.49h7.77c-.33-.71-.59-1.95-.78-3.72-.1-1.05-.24-1.85-.42-2.39h0Z"/>
    <path class="navy" d="M351.96,70.78c-1.47.47-2.72,1.25-3.77,2.35-1.53,1.62-2.3,3.51-2.3,5.67,0,3.33,1.45,5.85,4.35,7.54,1.04.59,2.16,1.01,3.35,1.27,1.19.26,2.73.39,4.62.39h8.7v-3.83h-7.97c-1.99,0-3.42-.24-4.3-.73-.88-.49-1.39-1.32-1.52-2.5h13.79v-3.83h-13.79c.16-1.23.6-2.07,1.32-2.52.72-.45,1.97-.68,3.76-.68h8.7v-3.83h-9.19c-2.38,0-4.3.23-5.77.7h0Z"/>
    <path class="navy" d="M387.24,70.4c-.99-.21-2.44-.31-4.33-.31h-12.61v17.92h6.55v-14.09h5.67c1.21,0,2.07.2,2.59.59.52.39.78,1.03.78,1.91v11.59h6.55v-11.04c0-2.48-.83-4.29-2.49-5.44-.82-.54-1.72-.91-2.71-1.12h0Z"/>
    <path class="navy" d="M404.91,63.46h-6.55v6.62h-4.16v3.83h4.16v7.36c0,2.43.6,4.16,1.81,5.19,1.2,1.03,3.23,1.54,6.06,1.54h4.74v-3.83h-2.59c-1.4,0-2.38-.29-2.93-.88-.36-.39-.54-1.35-.54-2.87v-6.51h6.06v-3.83h-6.06v-6.62Z"/>
    <path class="navy" d="M429.89,84.17h-7.53c-1.3,0-2.22-.12-2.76-.37-.54-.24-.81-.65-.81-1.21,0-.51.22-.92.66-1.21.44-.29,1.03-.44,1.79-.44h8.65v3.24h0ZM431.31,70.53c-.78-.17-1.55-.29-2.3-.35-.75-.06-2.12-.09-4.11-.09h-11.05v3.83h11.05c1.99,0,3.32.22,3.99.66.67.44,1,1.29,1,2.54h-8.02c-2.58,0-4.42.15-5.53.44-1.27.34-2.29.99-3.05,1.93-.77.94-1.15,2.02-1.15,3.22,0,1.99.96,3.47,2.89,4.45.72.34,1.55.57,2.49.68.95.11,2.66.17,5.13.17h13.79v-10.08c.2-3.9-1.52-6.36-5.13-7.39h0Z"/>
    <polygon class="navy" points="440.6 88 447.15 88 447.15 63.46 440.6 63.46 440.6 88"/>
  </svg>

  <!-- 副标 -->
  <text x="512" y="700" text-anchor="middle"
        font-family="'PingFang SC','Microsoft YaHei',-apple-system,sans-serif"
        font-size="44" font-weight="700" fill="#171c61" letter-spacing="2">
    租车智能助手
  </text>

  <text x="512" y="770" text-anchor="middle"
        font-family="'PingFang SC','Microsoft YaHei',-apple-system,sans-serif"
        font-size="28" font-weight="500" fill="#171c61" opacity="0.75">
    在线智能客服 · 7×24 小时随时在线
  </text>

  <!-- 装饰小圆点 -->
  <circle cx="512" cy="830" r="5" fill="#ea5514"/>

  <!-- 域名 -->
  <text x="512" y="895" text-anchor="middle"
        font-family="'DM Sans','Helvetica Neue',-apple-system,sans-serif"
        font-size="26" font-weight="500" fill="#1a1714" opacity="0.65">
    chat.yiturentalcars.co.nz
  </text>

  <!-- 底部装饰条 -->
  <rect x="0" y="1014" width="1024" height="10" fill="#171c61"/>
  <rect x="684" y="1014" width="340" height="10" fill="#ea5514"/>
</svg>
